<?xml version="1.0" encoding="UTF-8"?>
<svg id="Camada_1" data-name="Camada 1" xmlns="http://www.w3.org/2000/svg" viewBox="0 0 1326.58 113.46">
  <defs>
    <style>
      .cls-1 {
        fill: #fff;
      }
    </style>
  </defs>
  <path class="cls-1" d="M114.74,33.28h-28.28c-6.08,0-11.9,2.83-15.38,7.82-.28.4-.53.8-.74,1.18-1.1,2-1.96,4.28-2.58,6.83-1.08,4.45-5,7.62-9.58,7.62h-13.17c-6.48,0-11.72,5.25-11.72,11.72s5.25,11.73,11.72,11.73h28.27c6.08,0,11.9-2.83,15.38-7.82.29-.4.54-.8.75-1.18,1.09-1.99,1.95-4.27,2.57-6.82,1.09-4.45,5.01-7.63,9.59-7.63h13.17c6.48,0,11.73-5.25,11.73-11.73s-5.25-11.72-11.73-11.72Z"/>
  <path class="cls-1" d="M243.54,42.66h9.38v-9.38h-88.49c-2.59,0-4.69,2.1-4.69,4.69v18.76c0,2.59,2.1,4.69,4.69,4.69h4.69s69.73,0,69.73,0c2.59,0,4.69,2.1,4.69,4.69h0c0,2.59-2.1,4.69-4.69,4.69h-69.73s-9.38,0-9.38,0v9.38h88.49c2.59,0,4.69-2.1,4.69-4.69v-18.76c0-2.59-2.1-4.69-4.69-4.69h-4.69s-69.73,0-69.73,0c-2.59,0-4.69-2.1-4.69-4.69h0c0-2.59,2.1-4.69,4.69-4.69h69.73Z"/>
  <rect class="cls-1" x="269.56" y="33.28" width="9.38" height="46.9"/>
  <path class="cls-1" d="M379.38,33.28v34.98c0,1.4-1.14,2.54-2.54,2.54h-10.08c-2.49,0-4.87-.99-6.63-2.75l-6.63-6.63-6.64-6.63-12.13-12.13h0l-6.63-6.63c-1.76-1.76-4.14-2.75-6.63-2.75h-9.37s-7.13,0-7.13,0h0c-5.18,0-9.38,4.2-9.38,9.38h0s0,0,0,0v37.52h9.38v-34.98c0-1.4,1.14-2.54,2.54-2.54h10.09c2.49,0,4.87.99,6.63,2.75l16.01,16.01,6.63,6.64,2.74,2.74,6.63,6.63c1.76,1.76,4.14,2.75,6.63,2.75h9.39s7.12,0,7.12,0h0c5.18,0,9.38-4.2,9.38-9.38h0v-37.52h-9.38Z"/>
  <path class="cls-1" d="M405.4,37.97v42.21h9.38v-14.07c0-2.59,2.1-4.69,4.69-4.69h65.04c2.59,0,4.69,2.1,4.69,4.69v14.07h9.38v-42.21c0-2.59-2.1-4.69-4.69-4.69h-83.8c-2.59,0-4.69,2.1-4.69,4.69ZM484.51,52.04h-65.04c-2.59,0-4.69-2.1-4.69-4.69h0c0-2.59,2.1-4.69,4.69-4.69h65.04c2.59,0,4.69,2.1,4.69,4.69h0c0,2.59-2.1,4.69-4.69,4.69Z"/>
  <path class="cls-1" d="M515.22,33.28v46.9h9.38v-18.76h79.11c2.59,0,4.69-2.1,4.69-4.69v-18.76c0-2.59-2.1-4.69-4.69-4.69h-88.49ZM594.33,52.04h-69.73v-9.38h69.73c2.59,0,4.69,2.1,4.69,4.69h0c0,2.59-2.1,4.69-4.69,4.69Z"/>
  <path class="cls-1" d="M634.42,47.35h0c0,2.59,2.1,4.69,4.69,4.69h74.42c2.59,0,4.69,2.1,4.69,4.69v18.76c0,2.59-2.1,4.69-4.69,4.69h-88.49v-9.38h79.11c2.59,0,4.69-2.1,4.69-4.69h0c0-2.59-2.1-4.69-4.69-4.69h-74.42c-2.59,0-4.69-2.1-4.69-4.69v-18.76c0-2.59,2.1-4.69,4.69-4.69h88.49v9.38h-79.11c-2.59,0-4.69,2.1-4.69,4.69Z"/>
  <path class="cls-1" d="M880,66.11c0,2.6,2.1,4.69,4.69,4.69h79.11v9.38h-88.49c-2.59,0-4.69-2.09-4.69-4.69v-37.52c0-2.59,2.1-4.69,4.69-4.69h88.49v9.38h-79.11c-2.59,0-4.69,2.1-4.69,4.69v18.76Z"/>
  <path class="cls-1" d="M1073.66,70.8v9.38h-88.49c-2.59,0-4.69-2.09-4.69-4.69v-42.21h9.38v32.83c0,2.6,2.1,4.69,4.69,4.69h79.11Z"/>
  <path class="cls-1" d="M1183.48,33.28v42.21c0,2.6-2.1,4.69-4.69,4.69h-83.8c-2.59,0-4.69-2.09-4.69-4.69v-42.21h9.38v32.83c0,2.6,2.1,4.69,4.69,4.69h65.04c2.59,0,4.69-2.09,4.69-4.69v-32.83h9.38Z"/>
  <path class="cls-1" d="M818.66,33.28h-79.11c-2.59,0-4.69,2.1-4.69,4.69v37.52c0,2.59,2.1,4.69,4.69,4.69h88.49v-9.38h-83.8v-9.38h79.11c2.59,0,4.69-2.1,4.69-4.69v-18.76c0-2.59-2.1-4.69-4.69-4.69h-4.69ZM813.97,52.04h-69.73s0-9.38,0-9.38h69.73c2.59,0,4.69,2.1,4.69,4.69h0c0,2.59-2.1,4.69-4.69,4.69Z"/>
  <path class="cls-1" d="M1288.61,33.28h-88.49v46.9h88.49c2.59,0,4.69-2.1,4.69-4.69v-37.52c0-2.59-2.1-4.69-4.69-4.69ZM1209.5,42.66h69.73c2.59,0,4.69,2.1,4.69,4.69,0,1.3-.53,2.47-1.37,3.32-.85.85-2.02,1.37-3.32,1.37h-69.73v-9.38ZM1209.5,70.8v-9.38h69.73c2.59,0,4.69,2.1,4.69,4.69s-2.1,4.69-4.69,4.69h-69.73Z"/>
</svg>