<?xml version="1.0" encoding="UTF-8"?>
<svg id="Camada_1" data-name="Camada 1" xmlns="http://www.w3.org/2000/svg" viewBox="0 0 159.74 113.46">
  <defs>
    <style>
      .cls-1 {
        fill: #1a1b1b;
      }
    </style>
  </defs>
  <path class="cls-1" d="M114.74,33.28h-28.28c-6.08,0-11.9,2.83-15.38,7.82-.28.4-.53.8-.74,1.18-1.1,2-1.96,4.28-2.58,6.83-1.08,4.45-5,7.62-9.58,7.62h-13.17c-6.48,0-11.72,5.25-11.72,11.72s5.25,11.73,11.72,11.73h28.27c6.08,0,11.9-2.83,15.38-7.82.29-.4.54-.8.75-1.18,1.09-1.99,1.95-4.27,2.57-6.82,1.09-4.45,5.01-7.63,9.59-7.63h13.17c6.48,0,11.73-5.25,11.73-11.73s-5.25-11.72-11.73-11.72Z"/>
</svg>